PathFileType	4	(X/Y/Z)	c:/Users/goper/Files/vsCode/490R/osim_files/A03/A03_Fast_01.trc
DataRate	CameraRate	NumFrames	NumMarkers	Units                	OrigDataRate	OrigDataStartFrame	OrigNumFrames
250.00	250.00	9	36	mm	250.0	1166	2330
                Frame#	Time	LPSIS			LASIS			LTH1			LTH2			LTH3			LTH4			LLFE			LMFE			LSH1			LSH2			LSH3			LSH4			LLMAL			LMMAL			LCAL			LMTP5			LTOE			LMTP1			RPSIS			RASIS			RTH1			RTH2			RTH3			RTH4			RLFE			RMFE			RSH1			RSH2			RSH3			RSH4			RLMAL			RMMAL			RCAL			RMTP1			RTOE			RMTP5		
		X1	Y1	Z1	X2	Y2	Z2	X3	Y3	Z3	X4	Y4	Z4	X5	Y5	Z5	X6	Y6	Z6	X7	Y7	Z7	X8	Y8	Z8	X9	Y9	Z9	X10	Y10	Z10	X11	Y11	Z11	X12	Y12	Z12	X13	Y13	Z13	X14	Y14	Z14	X15	Y15	Z15	X16	Y16	Z16	X17	Y17	Z17	X18	Y18	Z18	X19	Y19	Z19	X20	Y20	Z20	X21	Y21	Z21	X22	Y22	Z22	X23	Y23	Z23	X24	Y24	Z24	X25	Y25	Z25	X26	Y26	Z26	X27	Y27	Z27	X28	Y28	Z28	X29	Y29	Z29	X30	Y30	Z30	X31	Y31	Z31	X32	Y32	Z32	X33	Y33	Z33	X34	Y34	Z34	X35	Y35	Z35	X36	Y36	Z36

1166	4.66000	-1296.85950	1077.91309	292.80521	-1530.90527	988.24377	424.49283	-1494.41614	635.42578	450.81158	-1505.91882	593.71570	447.37057	-1553.94910	645.43201	433.10696	-1555.18909	601.32056	430.97363	-1502.69653	546.87976	437.08719	-1522.78748	547.21039	281.26596	-1454.40979	464.86511	431.94824	-1451.85706	416.91306	427.67661	-1515.02100	454.03448	424.97586	-1501.83325	408.60486	417.54050	-1419.15198	99.19768	375.54272	-1426.02441	105.89887	277.76053	-1347.36353	85.18994	324.28156	-1569.28333	41.00481	378.03116	-1594.93738	71.57729	308.95718	-1562.95374	51.82045	265.60956	-1300.73730	1079.78381	209.69798	-1545.54553	990.39575	125.35709	-1581.41760	648.34399	43.26222	-1592.46606	605.74756	46.87720	-1641.08826	659.13440	48.58315	-1644.90076	615.83606	51.94350	-1617.21167	575.15033	60.98114	-1650.97180	575.63324	185.14706	-1547.87732	543.91327	57.25814	-1525.97754	508.88889	45.01947	-1596.96594	504.22040	57.28136	-1564.68030	471.85187	46.11949	-1355.15344	248.04092	95.37193	-1379.25488	220.90041	179.83836	-1286.54749	249.21207	150.49466	-1435.44006	94.60544	196.63835	-1470.88330	95.05530	145.21863	-1422.08167	83.84888	80.08592
1167	4.66400	-1302.29126	1078.22803	292.71014	-1535.92053	988.52026	424.77151	-1495.98853	635.61615	450.45673	-1507.06921	593.76184	446.97363	-1555.70239	645.06348	432.82196	-1555.82190	600.33643	430.62045	-1503.38379	546.98523	436.61847	-1523.51367	547.12445	280.83954	-1454.91406	465.01456	431.53769	-1452.29211	417.06430	427.36484	-1515.52026	454.06760	424.61023	-1502.31311	408.69537	417.24014	-1419.16858	99.26017	375.47794	-1426.04297	105.93068	277.73621	-1346.98779	85.32940	324.26688	-1569.26404	40.95586	378.02365	-1594.98523	71.53911	308.93713	-1562.96045	51.75462	265.58865	-1306.30811	1080.13159	209.60663	-1551.50989	991.48431	125.72477	-1589.30969	649.68713	43.80165	-1600.56226	607.11566	47.43743	-1648.85913	661.00079	49.23933	-1653.09985	617.71899	52.71981	-1626.03748	577.02124	61.87189	-1659.24890	577.68707	185.72823	-1556.57690	544.24298	57.72906	-1535.45312	508.79453	45.46070	-1606.42200	505.41470	57.77827	-1574.92432	472.50836	46.65797	-1369.86377	244.27759	95.27612	-1394.48108	217.68425	179.72542	-1301.18726	243.52325	150.21638	-1454.00244	92.86717	196.52411	-1489.39966	94.28661	145.21408	-1441.12927	81.77105	79.99957
1168	4.66800	-1307.76208	1078.50891	292.62891	-1541.07898	988.74811	425.09732	-1497.57458	635.77539	450.06946	-1508.30518	593.83093	446.54056	-1556.45825	643.75891	432.63916	-1557.14917	599.98889	430.22687	-1504.03809	547.07629	436.15961	-1524.21887	547.01263	280.38156	-1455.42590	465.20053	431.13062	-1452.75366	417.21674	427.01437	-1516.05420	454.14270	424.20483	-1502.78540	408.78925	416.86633	-1419.20374	99.35197	375.43213	-1425.65625	106.03284	278.04922	-1347.05090	85.42349	324.21567	-1569.27612	40.97470	377.99762	-1595.00806	71.44320	308.88950	-1563.02393	51.73609	265.56680	-1311.82019	1080.47607	209.46968	-1557.46741	992.59027	126.06604	-1597.79041	650.95557	44.21880	-1610.08850	608.26715	48.79462	-1656.48047	662.76697	49.91684	-1661.20166	619.52899	53.49405	-1634.36877	578.61169	62.54310	-1667.33557	579.58490	186.31201	-1565.19019	544.64758	58.15324	-1544.92773	508.54834	45.97398	-1615.87988	506.60492	58.35853	-1585.54053	473.23013	47.10606	-1384.73206	240.40453	95.16778	-1409.90979	214.49374	179.60555	-1315.97546	237.72093	149.97231	-1472.82397	91.32323	196.59502	-1507.95679	93.57925	145.20430	-1460.19080	79.81915	79.90477
1169	4.67200	-1313.23108	1078.71252	292.47821	-1546.06396	988.98108	425.23907	-1499.18140	635.95544	449.66510	-1509.46973	593.92322	446.05151	-1558.24609	643.45459	432.24539	-1558.44604	599.66998	429.79092	-1504.64917	547.20306	435.61938	-1524.84241	546.92175	279.82608	-1455.98889	465.37283	430.68219	-1453.25000	417.36176	426.58737	-1516.59717	454.28815	423.74985	-1503.25293	408.93213	416.43985	-1419.26941	99.43394	375.38635	-1426.26001	106.07050	277.56848	-1347.09375	85.52090	324.18243	-1569.33252	41.02422	377.98938	-1595.07910	71.48412	308.86258	-1563.04907	51.68559	265.52768	-1317.36792	1080.78455	209.33559	-1563.43372	993.57849	126.39056	-1604.83496	652.13708	44.93694	-1617.43567	609.49603	49.27015	-1664.15894	664.44159	50.67263	-1669.12683	621.19330	54.29979	-1642.66821	580.13940	63.23771	-1675.35791	581.51550	186.91585	-1573.70789	544.81006	58.71390	-1554.29663	508.25235	46.39961	-1625.18530	507.78708	58.92040	-1595.09302	473.61514	47.62615	-1399.73840	236.50244	94.98482	-1425.54163	211.18857	179.56708	-1330.98523	231.87029	149.70580	-1491.51868	89.84667	197.12291	-1526.68738	92.94070	145.24585	-1479.46338	77.91942	79.85119
1170	4.67600	-1318.70618	1078.82849	292.38330	-1551.12244	989.21252	425.43314	-1500.80103	636.20282	449.22256	-1510.70312	594.06470	445.53632	-1559.90320	643.10846	431.78616	-1559.69958	599.30957	429.27094	-1505.26770	547.34583	435.05240	-1525.54700	546.84381	279.27997	-1456.52563	465.57401	430.19293	-1453.69092	417.58569	426.16800	-1517.17810	454.42664	423.26355	-1503.72180	409.07431	416.01575	-1419.34082	99.54930	375.32944	-1426.30542	106.10700	277.50772	-1347.12000	85.62302	324.10379	-1569.39270	41.07654	377.94080	-1595.12744	71.44583	308.85748	-1563.08398	51.65625	265.51120	-1322.92554	1081.00293	209.21014	-1569.39087	994.51447	126.58524	-1612.41541	653.21191	45.50410	-1625.35559	610.71136	49.92635	-1671.73108	665.99310	51.42898	-1676.96057	622.78815	55.14732	-1650.47534	581.49310	63.59557	-1683.23267	583.33398	187.57489	-1582.78418	544.27637	59.02091	-1563.57703	507.78366	46.88171	-1634.46008	508.81241	59.52963	-1604.72839	473.99020	47.83239	-1414.88513	232.46089	94.70792	-1440.90063	208.12798	179.57007	-1346.38123	226.04233	149.43481	-1510.39539	88.33957	196.91359	-1545.64673	92.41778	145.52052	-1498.76111	76.05093	79.86536
1171	4.68000	-1323.69019	1080.23694	291.69620	-1556.16357	989.40906	425.53357	-1502.40552	636.35760	448.73395	-1511.89087	594.16132	444.97461	-1561.65857	642.82941	431.31845	-1561.06348	599.05688	428.74237	-1505.90173	547.51031	434.40543	-1526.12561	546.74316	278.69016	-1456.97473	465.78897	429.66043	-1454.13354	417.78848	425.68643	-1517.64441	454.58643	422.73672	-1504.17358	409.16858	415.56717	-1419.38965	99.67090	375.26047	-1425.96289	106.19513	277.53183	-1347.15491	85.72684	324.06375	-1569.40747	41.12796	377.91840	-1595.95642	71.83482	308.70120	-1563.09412	51.60454	265.48477	-1328.40222	1081.17578	209.07158	-1575.36450	995.41534	126.88435	-1619.38940	654.38599	45.69902	-1633.17053	611.80505	50.67348	-1678.99683	667.40991	52.09124	-1684.64941	624.26233	55.96709	-1658.83936	582.97723	64.67587	-1689.69897	584.44904	187.97147	-1591.08899	544.15106	59.47749	-1572.84900	507.20691	47.35910	-1644.04675	509.50711	60.31815	-1615.13025	474.46045	48.30783	-1430.24316	228.45486	94.54969	-1456.72778	204.82024	179.41095	-1361.73608	220.13847	149.14874	-1529.36304	86.82405	196.67714	-1564.50989	91.81377	145.63766	-1518.07959	74.25706	79.83375
1172	4.68400	-1329.16797	1080.27759	291.55780	-1561.06189	989.70490	425.46625	-1503.99365	636.54913	448.19330	-1513.08447	594.28607	444.41779	-1563.31714	642.45026	430.80331	-1562.32202	598.65900	428.18155	-1506.49475	547.66602	433.78152	-1526.69592	546.62885	278.01837	-1457.51782	465.99829	429.12482	-1454.55945	418.01239	425.19202	-1518.11108	454.71860	422.21136	-1504.62781	409.31668	415.06128	-1419.39539	99.79740	375.16553	-1426.06921	106.21210	277.45251	-1347.18347	85.83759	323.98938	-1569.43652	41.16211	377.87259	-1595.96814	71.59740	308.25671	-1563.14160	51.58279	265.43362	-1333.92151	1081.31445	208.90730	-1582.84546	996.96356	128.40593	-1626.85791	655.23346	46.35136	-1640.74207	612.82001	51.28268	-1686.40491	668.75092	52.89435	-1692.23254	625.61414	56.78122	-1666.40955	584.14764	65.01377	-1700.16052	587.47272	189.46721	-1599.00012	543.97992	59.80117	-1581.94727	506.51837	47.75437	-1652.89050	510.46191	60.81982	-1625.60645	474.63748	49.05030	-1445.99817	224.32143	94.64194	-1472.40125	201.63226	179.45734	-1377.03052	214.14525	148.85687	-1548.32324	85.39854	196.53978	-1583.39294	91.37673	145.74751	-1537.51794	72.57491	79.76232
1173	4.68800	-1334.64026	1080.25708	291.47836	-1566.06250	989.76288	425.51764	-1505.63684	636.75055	447.62656	-1514.33069	594.33868	443.82635	-1565.04419	642.07050	430.26727	-1563.49280	598.25391	427.58035	-1507.08142	547.78876	433.08447	-1527.34802	546.51849	277.40851	-1457.94836	466.19772	428.54376	-1454.96167	418.18616	424.70700	-1518.59009	454.77902	421.64694	-1505.01050	409.42175	414.56042	-1419.45105	99.86119	375.09464	-1426.11658	106.22648	277.37485	-1347.21790	85.89767	323.95551	-1569.47546	41.15418	377.85022	-1596.04382	71.55129	308.22290	-1563.17676	51.51479	265.42615	-1339.45020	1081.33459	208.70943	-1588.46509	997.73389	128.21886	-1634.87793	655.95178	46.87331	-1648.44360	613.73669	52.14560	-1693.53564	669.97345	53.68016	-1699.74402	626.83929	57.68004	-1674.56921	585.25726	66.18408	-1706.96277	588.66058	189.93689	-1607.25671	543.53796	60.30354	-1591.13855	505.74631	48.18959	-1661.48047	511.31955	61.27626	-1634.91113	474.83499	49.36608	-1461.46887	220.27948	94.40411	-1488.33435	198.29095	179.38850	-1392.74585	208.12732	148.63300	-1567.40088	84.10400	196.60576	-1602.34033	91.02750	145.81915	-1557.13635	70.96645	79.85375
1174	4.69200	-1340.72021	1080.09973	291.23102	-1571.12024	989.76685	425.57352	-1507.29199	636.92529	447.03403	-1515.50781	594.41986	443.18088	-1566.71655	641.62274	429.69531	-1564.77014	597.84082	427.02414	-1507.67175	547.87903	432.39987	-1527.96252	546.42078	276.71869	-1458.41919	466.38470	427.92859	-1455.40820	418.35172	424.17624	-1519.02844	454.85898	421.09085	-1505.41309	409.53470	414.06586	-1419.49622	99.92825	375.02264	-1426.17883	106.23873	277.32544	-1347.17639	86.04041	323.93927	-1569.43042	41.10458	377.83704	-1596.06348	71.51244	308.18732	-1563.23767	51.46754	265.39651	-1345.04773	1081.30579	208.56554	-1594.07715	998.45258	128.27567	-1642.06702	656.70190	47.44710	-1655.84070	614.59808	52.83167	-1700.62280	671.09631	54.45408	-1707.10925	627.99164	58.58499	-1682.16675	586.26770	66.90312	-1713.75708	589.76129	190.39346	-1615.44348	542.93390	60.79943	-1600.13086	504.79111	48.59819	-1670.04126	512.05151	61.75768	-1644.60803	474.88303	49.89116	-1477.39160	216.10808	94.31287	-1504.56860	194.89830	179.29694	-1408.77197	202.09338	148.39090	-1586.84607	82.87995	196.70045	-1621.36926	90.78038	145.97090	-1576.73022	69.39683	79.94817
